<svg width="131" height="131" viewBox="0 0 131 131" fill="none" xmlns="http://www.w3.org/2000/svg">
<rect x="1.5" y="1.5" width="128" height="128" rx="64" fill="#F8F9FA" stroke="black" stroke-width="3"/>
<g filter="url(#filter0_d_103_151)">
<path d="M46.976 79L38.336 65.944C42.704 65.56 46.64 62.392 46.64 56.632C46.64 50.728 42.464 46.984 36.608 46.984H23.744V79H27.728V66.28H34.112L42.272 79H46.976ZM42.512 56.632C42.512 60.232 39.92 62.776 36.128 62.776H27.728V50.536H36.128C39.92 50.536 42.512 53.032 42.512 56.632ZM72.2465 72.952C74.1665 70.264 75.5105 67.24 76.5665 64.696L73.4945 63.352C72.9185 65.128 71.7665 68.008 70.0385 70.648C68.7905 69.256 67.5425 67.864 66.2465 66.376C65.1905 65.176 63.7985 63.592 62.5505 61.816C66.5825 59.704 70.7105 57.592 70.7105 52.792C70.7105 48.76 67.5905 46.504 63.4625 46.504C58.9025 46.504 55.3985 49.672 55.3985 53.944C55.3985 56.2 56.4065 58.648 57.8465 61.096C54.1505 63.112 50.7905 65.656 50.7905 70.648C50.7905 76.6 55.2545 79.576 60.7265 79.576C64.6145 79.576 67.6385 77.944 69.9905 75.64C71.2865 76.936 72.5345 78.136 73.4945 79H78.4385C76.1345 76.84 74.1185 74.92 72.2465 72.952ZM59.0945 53.992C59.0945 51.256 61.1105 49.336 63.6065 49.336C65.7185 49.336 67.3505 50.584 67.3505 52.936C67.3505 56.104 64.4225 57.784 61.0145 59.512C59.9105 57.592 59.0945 55.672 59.0945 53.992ZM61.1105 76.6C57.7505 76.6 54.6785 74.392 54.6785 70.408C54.6785 67.096 56.7425 65.128 59.4305 63.496C60.6785 65.32 62.0705 67.048 63.3665 68.584C64.2785 69.688 66.0065 71.512 67.8305 73.432C66.0065 75.256 63.7505 76.6 61.1105 76.6ZM98.1485 79C104.005 79 107.413 75.496 107.413 70.36C107.413 66.52 104.581 63.016 101.173 62.488C104.101 61.864 106.789 59.176 106.789 55.144C106.789 50.344 103.381 46.984 97.8125 46.984H83.5565V79H98.1485ZM87.5405 50.536H97.1405C100.741 50.536 102.661 52.84 102.661 55.72C102.661 58.648 100.741 60.856 97.1405 60.856H87.5405V50.536ZM87.5405 64.408H97.3325C101.269 64.408 103.285 67 103.285 69.928C103.285 73.336 101.077 75.448 97.3325 75.448H87.5405V64.408Z" fill="#193F2B"/>
<path d="M46.976 79V80H48.8369L47.8099 78.4481L46.976 79ZM38.336 65.944L38.2484 64.9478L36.575 65.095L37.5021 66.4959L38.336 65.944ZM23.744 46.984V45.984H22.744V46.984H23.744ZM23.744 79H22.744V80H23.744V79ZM27.728 79V80H28.728V79H27.728ZM27.728 66.28V65.28H26.728V66.28H27.728ZM34.112 66.28L34.9537 65.74L34.6586 65.28H34.112V66.28ZM42.272 79L41.4303 79.54L41.7254 80H42.272V79ZM27.728 62.776H26.728V63.776H27.728V62.776ZM27.728 50.536V49.536H26.728V50.536H27.728ZM47.8099 78.4481L39.1699 65.3921L37.5021 66.4959L46.1421 79.5519L47.8099 78.4481ZM38.4236 66.9402C40.8162 66.7298 43.1239 65.7539 44.8399 64.0042C46.5667 62.2436 47.64 59.7541 47.64 56.632H45.64C45.64 59.2699 44.7453 61.2444 43.4121 62.6038C42.0681 63.9741 40.2238 64.7742 38.2484 64.9478L38.4236 66.9402ZM47.64 56.632C47.64 53.4332 46.5023 50.7481 44.5059 48.8663C42.516 46.9907 39.7492 45.984 36.608 45.984V47.984C39.3228 47.984 41.572 48.8493 43.1341 50.3217C44.6897 51.7879 45.64 53.9268 45.64 56.632H47.64ZM36.608 45.984H23.744V47.984H36.608V45.984ZM22.744 46.984V79H24.744V46.984H22.744ZM23.744 80H27.728V78H23.744V80ZM28.728 79V66.28H26.728V79H28.728ZM27.728 67.28H34.112V65.28H27.728V67.28ZM33.2703 66.82L41.4303 79.54L43.1137 78.46L34.9537 65.74L33.2703 66.82ZM42.272 80H46.976V78H42.272V80ZM41.512 56.632C41.512 58.1837 40.9582 59.453 40.0465 60.3355C39.1328 61.2198 37.7964 61.776 36.128 61.776V63.776C38.2516 63.776 40.1072 63.0601 41.4375 61.7725C42.7698 60.483 43.512 58.6803 43.512 56.632H41.512ZM36.128 61.776H27.728V63.776H36.128V61.776ZM28.728 62.776V50.536H26.728V62.776H28.728ZM27.728 51.536H36.128V49.536H27.728V51.536ZM36.128 51.536C37.8018 51.536 39.1388 52.0836 40.0505 52.9564C40.959 53.826 41.512 55.0812 41.512 56.632H43.512C43.512 54.5828 42.769 52.79 41.4335 51.5116C40.1012 50.2364 38.2462 49.536 36.128 49.536V51.536ZM72.2465 72.952L71.4328 72.3708L70.9527 73.0428L71.5219 73.6412L72.2465 72.952ZM76.5665 64.696L77.4901 65.0794L77.8663 64.1731L76.9673 63.7798L76.5665 64.696ZM73.4945 63.352L73.8953 62.4358L72.8839 61.9933L72.5433 63.0435L73.4945 63.352ZM70.0385 70.648L69.2939 71.3155L70.1626 72.2844L70.8752 71.1957L70.0385 70.648ZM66.2465 66.376L67.0006 65.7192L66.9972 65.7154L66.2465 66.376ZM62.5505 61.816L62.0865 60.9302L61.0773 61.4588L61.7323 62.3909L62.5505 61.816ZM57.8465 61.096L58.3254 61.9739L59.2321 61.4793L58.7084 60.589L57.8465 61.096ZM69.9905 75.64L70.6976 74.9329L69.9978 74.233L69.2907 74.9256L69.9905 75.64ZM73.4945 79L72.8255 79.7433L73.1108 80H73.4945V79ZM78.4385 79V80H80.9673L79.1224 78.2705L78.4385 79ZM61.0145 59.512L60.1476 60.0105L60.6205 60.833L61.4667 60.4039L61.0145 59.512ZM59.4305 63.496L60.2558 62.9313L59.721 62.1497L58.9115 62.6412L59.4305 63.496ZM63.3665 68.584L64.1375 67.9471L64.1308 67.9391L63.3665 68.584ZM67.8305 73.432L68.5376 74.1391L69.2268 73.4499L68.5555 72.7433L67.8305 73.432ZM73.0602 73.5332C75.0507 70.7466 76.4303 67.6325 77.4901 65.0794L75.6429 64.3126C74.5907 66.8475 73.2823 69.7814 71.4328 72.3708L73.0602 73.5332ZM76.9673 63.7798L73.8953 62.4358L73.0937 64.2682L76.1657 65.6122L76.9673 63.7798ZM72.5433 63.0435C71.9851 64.7646 70.8667 67.5568 69.2018 70.1003L70.8752 71.1957C72.6663 68.4592 73.8519 65.4914 74.4457 63.6605L72.5433 63.0435ZM70.7831 69.9805C69.5345 68.5878 68.2911 67.201 67.0006 65.7192L65.4924 67.0328C66.7939 68.527 68.0465 69.9242 69.2939 71.3155L70.7831 69.9805ZM66.9972 65.7154C65.9387 64.5125 64.5812 62.9665 63.3687 61.2411L61.7323 62.3909C63.0158 64.2175 64.4423 65.8395 65.4958 67.0366L66.9972 65.7154ZM63.0145 62.7018C64.9979 61.6629 67.1644 60.548 68.814 59.053C70.5096 57.5163 71.7105 55.5349 71.7105 52.792H69.7105C69.7105 54.8491 68.8474 56.3237 67.471 57.571C66.0486 58.86 64.1351 59.8571 62.0865 60.9302L63.0145 62.7018ZM71.7105 52.792C71.7105 50.4934 70.8091 48.6323 69.2705 47.3643C67.7541 46.1147 65.6988 45.504 63.4625 45.504V47.504C65.3542 47.504 66.9229 48.0213 67.9985 48.9077C69.0519 49.7757 69.7105 51.0586 69.7105 52.792H71.7105ZM63.4625 45.504C58.4335 45.504 54.3985 49.0399 54.3985 53.944H56.3985C56.3985 50.3041 59.3715 47.504 63.4625 47.504V45.504ZM54.3985 53.944C54.3985 56.4722 55.5181 59.11 56.9846 61.603L58.7084 60.589C57.2949 58.186 56.3985 55.9278 56.3985 53.944H54.3985ZM57.3676 60.2181C53.6227 62.2608 49.7905 65.0598 49.7905 70.648H51.7905C51.7905 66.2522 54.6783 63.9632 58.3254 61.9739L57.3676 60.2181ZM49.7905 70.648C49.7905 73.8985 51.0219 76.4222 53.0694 78.1147C55.0917 79.7866 57.8208 80.576 60.7265 80.576V78.576C58.1602 78.576 55.9213 77.8774 54.3436 76.5733C52.7911 75.2898 51.7905 73.3495 51.7905 70.648H49.7905ZM60.7265 80.576C64.9282 80.576 68.1922 78.8015 70.6903 76.3544L69.2907 74.9256C67.0848 77.0865 64.3008 78.576 60.7265 78.576V80.576ZM69.2834 76.3471C70.5859 77.6496 71.8475 78.8631 72.8255 79.7433L74.1635 78.2567C73.2215 77.4089 71.9871 76.2224 70.6976 74.9329L69.2834 76.3471ZM73.4945 80H78.4385V78H73.4945V80ZM79.1224 78.2705C76.8193 76.1113 74.8216 74.2082 72.9711 72.2628L71.5219 73.6412C73.4154 75.6318 75.4497 77.5687 77.7546 79.7295L79.1224 78.2705ZM60.0945 53.992C60.0945 51.8014 61.6697 50.336 63.6065 50.336V48.336C60.5513 48.336 58.0945 50.7106 58.0945 53.992H60.0945ZM63.6065 50.336C64.4715 50.336 65.1505 50.5906 65.6008 50.9966C66.0364 51.3895 66.3505 52.006 66.3505 52.936H68.3505C68.3505 51.514 67.8486 50.3305 66.9402 49.5114C66.0465 48.7054 64.8535 48.336 63.6065 48.336V50.336ZM66.3505 52.936C66.3505 54.1552 65.8079 55.1149 64.7952 56.0174C63.7481 56.9506 62.2784 57.7499 60.5623 58.6201L61.4667 60.4039C63.1586 59.5461 64.8569 58.6414 66.1258 57.5106C67.4291 56.3491 68.3505 54.8848 68.3505 52.936H66.3505ZM61.8814 59.0135C60.791 57.1172 60.0945 55.3926 60.0945 53.992H58.0945C58.0945 55.9514 59.03 58.0668 60.1476 60.0105L61.8814 59.0135ZM61.1105 75.6C59.6427 75.6 58.2795 75.1173 57.2967 74.2487C56.3298 73.3941 55.6785 72.1219 55.6785 70.408H53.6785C53.6785 72.6781 54.5632 74.5019 55.9723 75.7473C57.3655 76.9787 59.2183 77.6 61.1105 77.6V75.6ZM55.6785 70.408C55.6785 67.6346 57.3515 65.9281 59.9495 64.3508L58.9115 62.6412C56.1335 64.3279 53.6785 66.5574 53.6785 70.408H55.6785ZM58.6052 64.0607C59.8807 65.9249 61.2972 67.6822 62.6022 69.2289L64.1308 67.9391C62.8438 66.4138 61.4763 64.7151 60.2558 62.9313L58.6052 64.0607ZM62.5955 69.2209C63.5353 70.3585 65.2937 72.2136 67.1055 74.1207L68.5555 72.7433C66.7193 70.8104 65.0217 69.0175 64.1375 67.9471L62.5955 69.2209ZM67.1234 72.7249C65.4058 74.4425 63.3892 75.6 61.1105 75.6V77.6C64.1118 77.6 66.6072 76.0695 68.5376 74.1391L67.1234 72.7249ZM101.173 62.488L100.964 61.51L101.019 63.4762L101.173 62.488ZM83.5565 46.984V45.984H82.5565V46.984H83.5565ZM83.5565 79H82.5565V80H83.5565V79ZM87.5405 50.536V49.536H86.5405V50.536H87.5405ZM87.5405 60.856H86.5405V61.856H87.5405V60.856ZM87.5405 64.408V63.408H86.5405V64.408H87.5405ZM87.5405 75.448H86.5405V76.448H87.5405V75.448ZM98.1485 80C101.276 80 103.86 79.0609 105.668 77.328C107.48 75.5919 108.413 73.1548 108.413 70.36H106.413C106.413 72.7012 105.641 74.5841 104.285 75.884C102.925 77.1871 100.877 78 98.1485 78V80ZM108.413 70.36C108.413 66.0902 105.281 62.1126 101.326 61.4998L101.019 63.4762C103.88 63.9194 106.413 66.9498 106.413 70.36H108.413ZM101.381 63.466C104.752 62.7476 107.789 59.6667 107.789 55.144H105.789C105.789 58.6853 103.449 60.9804 100.964 61.51L101.381 63.466ZM107.789 55.144C107.789 52.4977 106.843 50.1814 105.07 48.5318C103.302 46.8874 100.797 45.984 97.8125 45.984V47.984C100.396 47.984 102.379 48.7606 103.707 49.9962C105.03 51.2266 105.789 52.9903 105.789 55.144H107.789ZM97.8125 45.984H83.5565V47.984H97.8125V45.984ZM82.5565 46.984V79H84.5565V46.984H82.5565ZM83.5565 80H98.1485V78H83.5565V80ZM87.5405 51.536H97.1405V49.536H87.5405V51.536ZM97.1405 51.536C98.7204 51.536 99.8291 52.0362 100.541 52.7528C101.258 53.4742 101.661 54.503 101.661 55.72H103.661C103.661 54.057 103.103 52.4938 101.96 51.3432C100.812 50.1878 99.1606 49.536 97.1405 49.536V51.536ZM101.661 55.72C101.661 56.9633 101.257 57.9747 100.548 58.6743C99.841 59.3722 98.7326 59.856 97.1405 59.856V61.856C99.1484 61.856 100.8 61.2358 101.953 60.0977C103.104 58.9613 103.661 57.4047 103.661 55.72H101.661ZM97.1405 59.856H87.5405V61.856H97.1405V59.856ZM88.5405 60.856V50.536H86.5405V60.856H88.5405ZM87.5405 65.408H97.3325V63.408H87.5405V65.408ZM97.3325 65.408C99.0714 65.408 100.289 65.9744 101.071 66.7707C101.861 67.575 102.285 68.6923 102.285 69.928H104.285C104.285 68.2357 103.7 66.593 102.498 65.3693C101.288 64.1376 99.5296 63.408 97.3325 63.408V65.408ZM102.285 69.928C102.285 71.4093 101.811 72.5048 101.029 73.2357C100.24 73.974 99.0206 74.448 97.3325 74.448V76.448C99.3884 76.448 101.145 75.866 102.396 74.6963C103.654 73.5192 104.285 71.8547 104.285 69.928H102.285ZM97.3325 74.448H87.5405V76.448H97.3325V74.448ZM88.5405 75.448V64.408H86.5405V75.448H88.5405Z" fill="black"/>
</g>
<g filter="url(#filter1_d_103_151)">
<path d="M14.8807 93V85.7273H19.2699V86.5085H15.7614V88.9659H19.0426V89.7472H15.7614V92.2188H19.3267V93H14.8807ZM21.5817 89.7188V93H20.7436V87.5455H21.5533V88.3977H21.6243C21.7521 88.1207 21.9463 87.8982 22.2067 87.7301C22.4671 87.5597 22.8033 87.4744 23.2152 87.4744C23.5845 87.4744 23.9077 87.5502 24.1847 87.7017C24.4616 87.8509 24.6771 88.0781 24.831 88.3835C24.9848 88.6866 25.0618 89.0701 25.0618 89.5341V93H24.2237V89.5909C24.2237 89.1624 24.1125 88.8286 23.8899 88.5895C23.6674 88.348 23.362 88.2273 22.9737 88.2273C22.7062 88.2273 22.4671 88.2853 22.2564 88.4013C22.0481 88.5173 21.8835 88.6866 21.7628 88.9091C21.642 89.1316 21.5817 89.4015 21.5817 89.7188ZM30.8581 87.5455L28.8411 93H27.9888L25.9718 87.5455H26.8809L28.3865 91.892H28.4434L29.949 87.5455H30.8581ZM31.9643 93V87.5455H32.8024V93H31.9643ZM32.3904 86.6364C32.2271 86.6364 32.0862 86.5807 31.9679 86.4695C31.8519 86.3582 31.7939 86.2244 31.7939 86.0682C31.7939 85.9119 31.8519 85.7782 31.9679 85.6669C32.0862 85.5556 32.2271 85.5 32.3904 85.5C32.5538 85.5 32.6935 85.5556 32.8095 85.6669C32.9279 85.7782 32.987 85.9119 32.987 86.0682C32.987 86.2244 32.9279 86.3582 32.8095 86.4695C32.6935 86.5807 32.5538 86.6364 32.3904 86.6364ZM34.3374 93V87.5455H35.147V88.3693H35.2038C35.3033 88.0994 35.4832 87.8804 35.7436 87.7124C36.004 87.5443 36.2976 87.4602 36.6243 87.4602C36.6858 87.4602 36.7628 87.4614 36.8551 87.4638C36.9474 87.4661 37.0173 87.4697 37.0646 87.4744V88.3267C37.0362 88.3196 36.9711 88.3089 36.8693 88.2947C36.7699 88.2782 36.6645 88.2699 36.5533 88.2699C36.2881 88.2699 36.0514 88.3255 35.843 88.4368C35.6371 88.5457 35.4737 88.6972 35.353 88.8913C35.2346 89.0831 35.1754 89.3021 35.1754 89.5483V93H34.3374ZM40.108 93.1136C39.6155 93.1136 39.1835 92.9964 38.8118 92.7621C38.4425 92.5277 38.1536 92.1998 37.9453 91.7784C37.7393 91.357 37.6364 90.8646 37.6364 90.3011C37.6364 89.733 37.7393 89.237 37.9453 88.8132C38.1536 88.3894 38.4425 88.0604 38.8118 87.826C39.1835 87.5916 39.6155 87.4744 40.108 87.4744C40.6004 87.4744 41.0313 87.5916 41.4006 87.826C41.7723 88.0604 42.0611 88.3894 42.267 88.8132C42.4754 89.237 42.5795 89.733 42.5795 90.3011C42.5795 90.8646 42.4754 91.357 42.267 91.7784C42.0611 92.1998 41.7723 92.5277 41.4006 92.7621C41.0313 92.9964 40.6004 93.1136 40.108 93.1136ZM40.108 92.3608C40.482 92.3608 40.7898 92.2649 41.0312 92.0732C41.2727 91.8814 41.4515 91.6293 41.5675 91.3168C41.6835 91.0043 41.7415 90.6657 41.7415 90.3011C41.7415 89.9366 41.6835 89.5968 41.5675 89.282C41.4515 88.9671 41.2727 88.7126 41.0312 88.5185C40.7898 88.3243 40.482 88.2273 40.108 88.2273C39.7339 88.2273 39.4261 88.3243 39.1847 88.5185C38.9432 88.7126 38.7644 88.9671 38.6484 89.282C38.5324 89.5968 38.4744 89.9366 38.4744 90.3011C38.4744 90.6657 38.5324 91.0043 38.6484 91.3168C38.7644 91.6293 38.9432 91.8814 39.1847 92.0732C39.4261 92.2649 39.7339 92.3608 40.108 92.3608ZM44.6969 89.7188V93H43.8588V87.5455H44.6685V88.3977H44.7395C44.8674 88.1207 45.0615 87.8982 45.3219 87.7301C45.5823 87.5597 45.9185 87.4744 46.3304 87.4744C46.6998 87.4744 47.0229 87.5502 47.2999 87.7017C47.5769 87.8509 47.7923 88.0781 47.9462 88.3835C48.1001 88.6866 48.177 89.0701 48.177 89.5341V93H47.339V89.5909C47.339 89.1624 47.2277 88.8286 47.0051 88.5895C46.7826 88.348 46.4772 88.2273 46.089 88.2273C45.8214 88.2273 45.5823 88.2853 45.3716 88.4013C45.1633 88.5173 44.9988 88.6866 44.878 88.9091C44.7573 89.1316 44.6969 89.4015 44.6969 89.7188ZM49.7085 93V87.5455H50.5181V88.3977H50.5891C50.7028 88.1065 50.8862 87.8804 51.1396 87.7195C51.3929 87.5561 51.6971 87.4744 52.0522 87.4744C52.4121 87.4744 52.7115 87.5561 52.9506 87.7195C53.1921 87.8804 53.3803 88.1065 53.5153 88.3977H53.5721C53.7118 88.116 53.9213 87.8923 54.2006 87.7266C54.48 87.5585 54.815 87.4744 55.2056 87.4744C55.6933 87.4744 56.0922 87.6271 56.4023 87.9325C56.7125 88.2356 56.8675 88.7079 56.8675 89.3494V93H56.0295V89.3494C56.0295 88.947 55.9194 88.6593 55.6992 88.4865C55.479 88.3137 55.2198 88.2273 54.9215 88.2273C54.538 88.2273 54.2409 88.3433 54.0302 88.5753C53.8195 88.8049 53.7141 89.0961 53.7141 89.4489V93H52.8619V89.2642C52.8619 88.9541 52.7612 88.7043 52.56 88.5149C52.3588 88.3232 52.0996 88.2273 51.7823 88.2273C51.5645 88.2273 51.3609 88.2853 51.1715 88.4013C50.9845 88.5173 50.833 88.6783 50.717 88.8842C50.6033 89.0878 50.5465 89.3234 50.5465 89.5909V93H49.7085ZM60.6868 93.1136C60.1612 93.1136 59.7079 92.9976 59.3267 92.7656C58.9479 92.5312 58.6555 92.2045 58.4496 91.7855C58.246 91.3641 58.1442 90.8741 58.1442 90.3153C58.1442 89.7566 58.246 89.2642 58.4496 88.8381C58.6555 88.4096 58.942 88.0758 59.3089 87.8366C59.6783 87.5952 60.1091 87.4744 60.6016 87.4744C60.8857 87.4744 61.1662 87.5218 61.4432 87.6165C61.7202 87.7112 61.9723 87.8651 62.1996 88.0781C62.4268 88.2888 62.608 88.5682 62.7429 88.9162C62.8778 89.2642 62.9453 89.6927 62.9453 90.2017V90.5568H58.7408V89.8324H62.093C62.093 89.5246 62.0315 89.25 61.9084 89.0085C61.7876 88.767 61.6148 88.5765 61.3899 88.4368C61.1674 88.2971 60.9046 88.2273 60.6016 88.2273C60.2678 88.2273 59.9789 88.3101 59.7351 88.4759C59.4936 88.6392 59.3078 88.8523 59.1776 89.1151C59.0473 89.3778 58.9822 89.6596 58.9822 89.9602V90.4432C58.9822 90.8551 59.0533 91.2043 59.1953 91.4908C59.3397 91.7749 59.5398 91.9915 59.7955 92.1406C60.0511 92.2874 60.3482 92.3608 60.6868 92.3608C60.907 92.3608 61.1058 92.33 61.2834 92.2685C61.4633 92.2045 61.6184 92.1098 61.7486 91.9844C61.8788 91.8565 61.9794 91.6979 62.0504 91.5085L62.8601 91.7358C62.7749 92.0104 62.6316 92.2519 62.4304 92.4602C62.2292 92.6662 61.9806 92.8272 61.6847 92.9432C61.3887 93.0568 61.0561 93.1136 60.6868 93.1136ZM65.0582 89.7188V93H64.2202V87.5455H65.0298V88.3977H65.1009C65.2287 88.1207 65.4228 87.8982 65.6832 87.7301C65.9437 87.5597 66.2798 87.4744 66.6918 87.4744C67.0611 87.4744 67.3842 87.5502 67.6612 87.7017C67.9382 87.8509 68.1536 88.0781 68.3075 88.3835C68.4614 88.6866 68.5384 89.0701 68.5384 89.5341V93H67.7003V89.5909C67.7003 89.1624 67.589 88.8286 67.3665 88.5895C67.1439 88.348 66.8385 88.2273 66.4503 88.2273C66.1828 88.2273 65.9437 88.2853 65.733 88.4013C65.5246 88.5173 65.3601 88.6866 65.2393 88.9091C65.1186 89.1316 65.0582 89.4015 65.0582 89.7188ZM72.4419 87.5455V88.2557H69.6152V87.5455H72.4419ZM70.4391 86.2386H71.2772V91.4375C71.2772 91.6742 71.3115 91.8518 71.3801 91.9702C71.4512 92.0862 71.5411 92.1643 71.65 92.2045C71.7613 92.2424 71.8785 92.2614 72.0016 92.2614C72.0939 92.2614 72.1697 92.2566 72.2289 92.2472C72.2881 92.2353 72.3354 92.2259 72.3709 92.2188L72.5414 92.9716C72.4846 92.9929 72.4052 93.0142 72.3034 93.0355C72.2016 93.0592 72.0726 93.071 71.9164 93.071C71.6796 93.071 71.4476 93.0201 71.2203 92.9183C70.9954 92.8165 70.8084 92.6615 70.6593 92.4531C70.5125 92.2448 70.4391 91.982 70.4391 91.6648V86.2386ZM75.3077 93.1278C74.9621 93.1278 74.6484 93.0627 74.3667 92.9325C74.0849 92.8 73.8612 92.6094 73.6955 92.3608C73.5298 92.1098 73.4469 91.8068 73.4469 91.4517C73.4469 91.1392 73.5085 90.8859 73.6316 90.6918C73.7547 90.4953 73.9192 90.3414 74.1252 90.2301C74.3311 90.1188 74.5584 90.036 74.807 89.9815C75.0579 89.9247 75.3101 89.8797 75.5634 89.8466C75.8948 89.804 76.1635 89.772 76.3695 89.7507C76.5778 89.727 76.7293 89.688 76.824 89.6335C76.9211 89.5791 76.9696 89.4844 76.9696 89.3494V89.321C76.9696 88.9706 76.8738 88.6984 76.682 88.5043C76.4926 88.3101 76.205 88.2131 75.8191 88.2131C75.419 88.2131 75.1053 88.3007 74.878 88.4759C74.6507 88.651 74.4909 88.8381 74.3986 89.0369L73.6032 88.7528C73.7452 88.4214 73.9346 88.1634 74.1713 87.9787C74.4105 87.7917 74.6709 87.6615 74.9526 87.5881C75.2367 87.5123 75.516 87.4744 75.7907 87.4744C75.9658 87.4744 76.1671 87.4957 76.3944 87.5384C76.624 87.5786 76.8453 87.6626 77.0584 87.7905C77.2739 87.9183 77.4526 88.1113 77.5946 88.3693C77.7367 88.6274 77.8077 88.973 77.8077 89.4062V93H76.9696V92.2614H76.927C76.8702 92.3797 76.7755 92.5064 76.6429 92.6413C76.5104 92.7763 76.334 92.8911 76.1138 92.9858C75.8936 93.0805 75.6249 93.1278 75.3077 93.1278ZM75.4355 92.375C75.767 92.375 76.0463 92.3099 76.2736 92.1797C76.5033 92.0495 76.6761 91.8814 76.7921 91.6754C76.9105 91.4695 76.9696 91.2528 76.9696 91.0256V90.2585C76.9341 90.3011 76.856 90.3402 76.7353 90.3757C76.6169 90.4089 76.4796 90.4384 76.3233 90.4645C76.1694 90.4882 76.0191 90.5095 75.8723 90.5284C75.7279 90.545 75.6107 90.5592 75.5208 90.571C75.303 90.5994 75.0994 90.6456 74.91 90.7095C74.723 90.7711 74.5714 90.8646 74.4554 90.9901C74.3418 91.1132 74.285 91.2812 74.285 91.4943C74.285 91.7855 74.3927 92.0057 74.6081 92.1548C74.8259 92.3016 75.1017 92.375 75.4355 92.375ZM80.1754 85.7273V93H79.3374V85.7273H80.1754ZM86.8809 93H84.6365V85.7273H86.9803C87.6858 85.7273 88.2895 85.8729 88.7914 86.1641C89.2933 86.4529 89.678 86.8684 89.9455 87.4105C90.213 87.9503 90.3468 88.5966 90.3468 89.3494C90.3468 90.107 90.2118 90.7592 89.9419 91.3061C89.6721 91.8506 89.2791 92.2696 88.763 92.5632C88.2469 92.8544 87.6195 93 86.8809 93ZM85.5172 92.2188H86.824C87.4254 92.2188 87.9237 92.1027 88.3191 91.8707C88.7144 91.6387 89.0092 91.3085 89.2033 90.88C89.3974 90.4515 89.4945 89.9413 89.4945 89.3494C89.4945 88.7623 89.3986 88.2569 89.2069 87.8331C89.0151 87.407 88.7286 87.0803 88.3475 86.853C87.9663 86.6233 87.4917 86.5085 86.9235 86.5085H85.5172V92.2188ZM91.7104 93V87.5455H92.5201V88.3693H92.5769C92.6763 88.0994 92.8562 87.8804 93.1167 87.7124C93.3771 87.5443 93.6706 87.4602 93.9973 87.4602C94.0589 87.4602 94.1358 87.4614 94.2282 87.4638C94.3205 87.4661 94.3903 87.4697 94.4377 87.4744V88.3267C94.4093 88.3196 94.3442 88.3089 94.2424 88.2947C94.1429 88.2782 94.0376 88.2699 93.9263 88.2699C93.6612 88.2699 93.4244 88.3255 93.2161 88.4368C93.0101 88.5457 92.8468 88.6972 92.726 88.8913C92.6077 89.0831 92.5485 89.3021 92.5485 89.5483V93H91.7104ZM95.4311 93V87.5455H96.2692V93H95.4311ZM95.8572 86.6364C95.6939 86.6364 95.553 86.5807 95.4347 86.4695C95.3187 86.3582 95.2607 86.2244 95.2607 86.0682C95.2607 85.9119 95.3187 85.7782 95.4347 85.6669C95.553 85.5556 95.6939 85.5 95.8572 85.5C96.0206 85.5 96.1603 85.5556 96.2763 85.6669C96.3946 85.7782 96.4538 85.9119 96.4538 86.0682C96.4538 86.2244 96.3946 86.3582 96.2763 86.4695C96.1603 86.5807 96.0206 86.6364 95.8572 86.6364ZM98.6422 85.7273V93H97.8042V85.7273H98.6422ZM101.015 85.7273V93H100.177V85.7273H101.015ZM102.55 93V87.5455H103.388V93H102.55ZM102.976 86.6364C102.813 86.6364 102.672 86.5807 102.554 86.4695C102.438 86.3582 102.38 86.2244 102.38 86.0682C102.38 85.9119 102.438 85.7782 102.554 85.6669C102.672 85.5556 102.813 85.5 102.976 85.5C103.14 85.5 103.279 85.5556 103.395 85.6669C103.514 85.7782 103.573 85.9119 103.573 86.0682C103.573 86.2244 103.514 86.3582 103.395 86.4695C103.279 86.5807 103.14 86.6364 102.976 86.6364ZM105.761 89.7188V93H104.923V87.5455H105.733V88.3977H105.804C105.932 88.1207 106.126 87.8982 106.386 87.7301C106.647 87.5597 106.983 87.4744 107.395 87.4744C107.764 87.4744 108.087 87.5502 108.364 87.7017C108.641 87.8509 108.857 88.0781 109.011 88.3835C109.165 88.6866 109.241 89.0701 109.241 89.5341V93H108.403V89.5909C108.403 89.1624 108.292 88.8286 108.07 88.5895C107.847 88.348 107.542 88.2273 107.153 88.2273C106.886 88.2273 106.647 88.2853 106.436 88.4013C106.228 88.5173 106.063 88.6866 105.942 88.9091C105.822 89.1316 105.761 89.4015 105.761 89.7188ZM112.975 95.1591C112.57 95.1591 112.222 95.107 111.931 95.0028C111.639 94.901 111.397 94.7661 111.203 94.598C111.011 94.4323 110.858 94.2547 110.744 94.0653L111.412 93.5966C111.488 93.696 111.584 93.8097 111.7 93.9375C111.816 94.0677 111.974 94.1802 112.176 94.2749C112.379 94.3719 112.646 94.4205 112.975 94.4205C113.415 94.4205 113.778 94.3139 114.065 94.1009C114.351 93.8878 114.494 93.554 114.494 93.0994V91.9915H114.423C114.362 92.0909 114.274 92.214 114.161 92.3608C114.049 92.5052 113.888 92.6342 113.678 92.7479C113.469 92.8591 113.188 92.9148 112.833 92.9148C112.392 92.9148 111.997 92.8106 111.646 92.6023C111.298 92.3939 111.023 92.0909 110.819 91.6932C110.618 91.2955 110.517 90.8125 110.517 90.2443C110.517 89.6856 110.615 89.1991 110.812 88.7848C111.008 88.3681 111.282 88.0462 111.632 87.8189C111.983 87.5893 112.387 87.4744 112.847 87.4744C113.202 87.4744 113.484 87.5336 113.692 87.652C113.903 87.768 114.064 87.9006 114.175 88.0497C114.289 88.1965 114.376 88.3172 114.438 88.4119H114.523V87.5455H115.333V93.1562C115.333 93.625 115.226 94.0062 115.013 94.2997C114.802 94.5956 114.518 94.8123 114.161 94.9496C113.806 95.0893 113.41 95.1591 112.975 95.1591ZM112.946 92.1619C113.282 92.1619 113.566 92.085 113.798 91.9311C114.03 91.7772 114.207 91.5559 114.328 91.267C114.448 90.9782 114.509 90.6326 114.509 90.2301C114.509 89.8371 114.45 89.4903 114.331 89.1896C114.213 88.889 114.038 88.6534 113.806 88.483C113.574 88.3125 113.287 88.2273 112.946 88.2273C112.591 88.2273 112.295 88.3172 112.058 88.4972C111.824 88.6771 111.648 88.9186 111.529 89.2216C111.413 89.5246 111.355 89.8608 111.355 90.2301C111.355 90.6089 111.414 90.9439 111.533 91.2351C111.654 91.5239 111.831 91.7512 112.066 91.9169C112.302 92.0803 112.596 92.1619 112.946 92.1619Z" fill="black"/>
</g>
<defs>
<filter id="filter0_d_103_151" x="19.744" y="46.5039" width="91.6685" height="41.0723" filterUnits="userSpaceOnUse" color-interpolation-filters="sRGB">
<feFlood flood-opacity="0" result="BackgroundImageFix"/>
<feColorMatrix in="SourceAlpha" type="matrix" values="0 0 0 0 0 0 0 0 0 0 0 0 0 0 0 0 0 0 127 0" result="hardAlpha"/>
<feOffset dy="4"/>
<feGaussianBlur stdDeviation="2"/>
<feComposite in2="hardAlpha" operator="out"/>
<feColorMatrix type="matrix" values="0 0 0 0 0 0 0 0 0 0 0 0 0 0 0 0 0 0 0.25 0"/>
<feBlend mode="normal" in2="BackgroundImageFix" result="effect1_dropShadow_103_151"/>
<feBlend mode="normal" in="SourceGraphic" in2="effect1_dropShadow_103_151" result="shape"/>
</filter>
<filter id="filter1_d_103_151" x="10.8807" y="85.5" width="108.452" height="17.6582" filterUnits="userSpaceOnUse" color-interpolation-filters="sRGB">
<feFlood flood-opacity="0" result="BackgroundImageFix"/>
<feColorMatrix in="SourceAlpha" type="matrix" values="0 0 0 0 0 0 0 0 0 0 0 0 0 0 0 0 0 0 127 0" result="hardAlpha"/>
<feOffset dy="4"/>
<feGaussianBlur stdDeviation="2"/>
<feComposite in2="hardAlpha" operator="out"/>
<feColorMatrix type="matrix" values="0 0 0 0 0 0 0 0 0 0 0 0 0 0 0 0 0 0 0.25 0"/>
<feBlend mode="normal" in2="BackgroundImageFix" result="effect1_dropShadow_103_151"/>
<feBlend mode="normal" in="SourceGraphic" in2="effect1_dropShadow_103_151" result="shape"/>
</filter>
</defs>
</svg>
